<svg preserveAspectRatio="none" width="100%" height="100%" overflow="visible" style="display: block;" viewBox="0 0 12 16" fill="none" xmlns="http://www.w3.org/2000/svg">
<path id="plug" d="M4 0.75C4 0.334375 3.66563 0 3.25 0C2.83437 0 2.5 0.334375 2.5 0.75V3.5H4V0.75ZM9.5 0.75C9.5 0.334375 9.16563 0 8.75 0C8.33437 0 8 0.334375 8 0.75V3.5H9.5V0.75ZM0.75 4.5C0.334375 4.5 0 4.83437 0 5.25C0 5.66563 0.334375 6 0.75 6H1V8C1 10.5062 2.84375 12.5813 5.25 12.9438V15.25C5.25 15.6656 5.58437 16 6 16C6.41563 16 6.75 15.6656 6.75 15.25V12.9438C9.15625 12.5813 11 10.5062 11 8V6H11.25C11.6656 6 12 5.66563 12 5.25C12 4.83437 11.6656 4.5 11.25 4.5H11H9.5H2.5H1H0.75ZM6 11.5C4.06562 11.5 2.5 9.93438 2.5 8V6H9.5V8C9.5 9.93438 7.93438 11.5 6 11.5Z" fill="var(--fill-0, #55585D)"/>
</svg>
