<svg preserveAspectRatio="none" width="100%" height="100%" overflow="visible" style="display: block;" viewBox="0 0 16.0009 16.0004" fill="none" xmlns="http://www.w3.org/2000/svg">
<path id="screwdriver wrench" d="M2.45714 0.156626C2.16026 -0.0746243 1.73839 -0.0464993 1.46964 0.219126L0.219636 1.46913C-0.0459894 1.73475 -0.0741144 2.15663 0.154011 2.45663L2.65401 5.70663C2.79464 5.891 3.01651 6.00038 3.24776 6.00038H4.93839L8.34464 9.40663C7.88526 10.3129 8.03214 11.4504 8.79151 12.2066L12.2915 15.7066C12.6821 16.0973 13.3165 16.0973 13.7071 15.7066L15.7071 13.7066C16.0978 13.316 16.0978 12.6816 15.7071 12.291L12.2071 8.791C11.4509 8.03475 10.3134 7.88475 9.40714 8.34413L6.00089 4.93788V3.24725C6.00089 3.01288 5.89151 2.79413 5.70714 2.6535L2.45714 0.156626ZM0.725886 11.7754C0.260261 12.241 0.000885559 12.8691 0.000885559 13.5254C0.000885559 14.891 1.11026 16.0004 2.47589 16.0004C3.13214 16.0004 3.76026 15.741 4.22589 15.2754L7.45401 12.0473C7.17589 11.4973 7.05401 10.8879 7.09151 10.2879L3.16651 14.216C2.98214 14.3973 2.73526 14.5004 2.47589 14.5004C1.93839 14.5004 1.50089 14.0629 1.50089 13.5254C1.50089 13.266 1.60401 13.0191 1.78526 12.8348L6.07276 8.54725L5.01339 7.48788L0.725886 11.7754ZM14.4978 5.12538C14.454 6.341 13.7915 7.40038 12.8165 7.99413C12.8509 8.02538 12.8821 8.05663 12.9134 8.08788L13.9009 9.07538C15.1728 8.16913 16.0009 6.68163 16.0009 5.0035C16.0009 4.2285 15.8228 3.49413 15.5103 2.83788C15.3728 2.55038 14.9946 2.50975 14.7696 2.73475L12.6478 4.85663C12.554 4.95038 12.4259 5.0035 12.2946 5.0035L11.5009 5.00038C11.2259 5.00038 11.0009 4.77538 11.0009 4.50038V3.70663C11.0009 3.57538 11.054 3.44725 11.1478 3.3535L13.2696 1.23163C13.4946 1.00663 13.454 0.628501 13.1665 0.491001C12.5103 0.178501 11.7759 0.000375663 11.0009 0.000375663C9.21026 0.000375663 7.63839 0.941001 6.75714 2.35663C6.91339 2.62538 7.00089 2.93163 7.00089 3.25038V4.52538L7.50089 5.02538V5.00038C7.50089 3.10975 9.00089 1.566 10.8759 1.5035L10.0853 2.29413C9.71026 2.66913 9.50089 3.1785 9.50089 3.70975V4.5035C9.50089 5.60663 10.3978 6.5035 11.5009 6.5035H12.2946C12.8259 6.5035 13.3353 6.29413 13.7103 5.91913L14.4978 5.12538Z" fill="var(--fill-0, #255096)"/>
</svg>
