<svg xmlns="http://www.w3.org/2000/svg" width="1200" height="675" viewBox="0 0 1200 675" preserveAspectRatio="xMidYMid slice"><defs><linearGradient id="sky" x1="0" y1="0" x2="0" y2="1"><stop offset="0" stop-color="#8fd3ff"/><stop offset="1" stop-color="#e6f7ff"/></linearGradient></defs><rect width="1200" height="675" fill="url(#sky)"/><circle cx="1000" cy="130" r="150" fill="#ffe27a" fill-opacity="0.35"/><circle cx="1000" cy="130" r="95" fill="#ffd23f"/><path d="M150 470 A330 330 0 0 1 810 470" fill="none" stroke="#ff6b6b" stroke-width="24"/><path d="M176 470 A304 304 0 0 1 784 470" fill="none" stroke="#ffa94d" stroke-width="24"/><path d="M202 470 A278 278 0 0 1 758 470" fill="none" stroke="#ffe066" stroke-width="24"/><path d="M228 470 A252 252 0 0 1 732 470" fill="none" stroke="#69db7c" stroke-width="24"/><path d="M254 470 A226 226 0 0 1 706 470" fill="none" stroke="#4dabf7" stroke-width="24"/><ellipse cx="170" cy="190" rx="90" ry="34" fill="#fff"/><ellipse cx="230" cy="170" rx="70" ry="36" fill="#fff"/><ellipse cx="120" cy="175" rx="50" ry="26" fill="#fff"/><ellipse cx="760" cy="260" rx="80" ry="28" fill="#fff"/><ellipse cx="820" cy="244" rx="56" ry="30" fill="#fff"/><path d="M0 520 Q300 400 620 500 T1200 470 V675 H0Z" fill="#7bd88f"/><path d="M0 590 Q360 500 700 580 T1200 560 V675 H0Z" fill="#4fbf6f"/><rect x="640" y="500" width="360" height="56" rx="6" fill="#ff6b6b"/><rect x="650" y="542" width="340" height="8" rx="3" fill="#fff" fill-opacity="0.85"/><rect x="656" y="514" width="120" height="10" rx="4" fill="#fff" fill-opacity="0.6"/><rect x="670" y="446" width="300" height="54" rx="6" fill="#4dabf7"/><rect x="680" y="486" width="280" height="8" rx="3" fill="#fff" fill-opacity="0.85"/><rect x="686" y="460" width="100" height="10" rx="4" fill="#fff" fill-opacity="0.6"/><rect x="655" y="394" width="330" height="52" rx="6" fill="#ffd43b"/><rect x="665" y="432" width="310" height="8" rx="3" fill="#fff" fill-opacity="0.85"/><rect x="671" y="408" width="110" height="10" rx="4" fill="#fff" fill-opacity="0.6"/><rect x="690" y="344" width="250" height="50" rx="6" fill="#9775fa"/><rect x="700" y="380" width="230" height="8" rx="3" fill="#fff" fill-opacity="0.85"/><rect x="706" y="358" width="83" height="10" rx="4" fill="#fff" fill-opacity="0.6"/><path d="M700 330 Q780 300 815 330 V252 Q780 226 700 256Z" fill="#fff"/><path d="M930 330 Q850 300 815 330 V252 Q850 226 930 256Z" fill="#f1f3f5"/><path d="M815 170 l14 34 36 3 -28 24 9 36 -31 -20 -31 20 9 -36 -28 -24 36 -3z" fill="#ffd43b" stroke="#fab005" stroke-width="3"/><circle cx="120" cy="420" r="26" fill="#ff8787"/><rect x="215" y="440" width="48" height="48" rx="8" fill="#ffd43b" transform="rotate(14 239 464)"/><path d="M60 560 l34 -60 34 60z" fill="#74c0fc"/></svg>