<svg preserveAspectRatio="none" width="100%" height="100%" overflow="visible" style="display: block;" viewBox="0 0 126.857 24.0001" fill="none" xmlns="http://www.w3.org/2000/svg">
<g id="stacks-logo">
<path id="Vector" d="M44.759 17.1006C44.7826 18.0897 44.5424 19.0678 44.0615 19.9386C43.6091 20.7331 42.9813 21.4197 42.2238 21.9481C41.4253 22.4972 40.5326 22.9025 39.5875 23.1445C38.589 23.41 37.5588 23.5439 36.5241 23.5433C32.3961 23.5433 29.5041 22.1811 27.8476 19.4567L31.3512 17.202C31.8512 18.0239 32.5842 18.6872 33.4619 19.1117C34.3967 19.5531 35.4248 19.7728 36.4632 19.7528C37.4342 19.7997 38.3977 19.5697 39.2366 19.0906C39.8778 18.7286 40.2722 18.0603 40.2719 17.3375C40.2807 16.9161 40.1996 16.4978 40.0337 16.1086C39.8459 15.7178 39.5659 15.3759 39.2167 15.1109C38.7264 14.74 38.1886 14.4331 37.6172 14.1975C36.9367 13.8942 36.0748 13.5653 35.0315 13.2111C34.1315 12.9081 33.2507 12.5528 32.3939 12.1472C31.6608 11.8045 30.9844 11.3564 30.3871 10.8184C29.8384 10.3209 29.4033 9.71586 29.1111 9.04281C28.7986 8.27725 28.6486 7.45809 28.6694 6.63448C28.658 5.77976 28.8256 4.93226 29.1614 4.14281C29.4955 3.38393 30.0083 2.71282 30.6586 2.18393C31.3942 1.5956 32.245 1.15976 33.1591 0.903096C35.2669 0.355597 37.4786 0.310597 39.608 0.771986C40.3817 0.951985 41.1262 1.23671 41.8197 1.61754C42.415 1.95087 42.9594 2.36448 43.4366 2.84643C43.8783 3.29726 44.2769 3.78643 44.6278 4.30781L41.3277 6.60059C40.8578 5.89809 40.2432 5.29837 39.5229 4.84059C38.6507 4.33837 37.647 4.09615 36.6357 4.14309C35.7154 4.08531 34.7979 4.29309 33.998 4.74059C33.4374 5.06948 33.0953 5.66198 33.097 6.30059C33.1059 7.09309 33.5458 7.82087 34.2521 8.21142C35.3446 8.8592 36.5065 9.38836 37.717 9.78975C38.7614 10.1423 39.7796 10.5661 40.7631 11.0578C41.567 11.4528 42.3066 11.962 42.9574 12.5684C43.5376 13.1189 43.9952 13.7806 44.3014 14.5117C44.6241 15.3375 44.7798 16.217 44.759 17.1006Z" fill="var(--fill-0, #002F56)"/>
<path id="Vector_2" d="M57.2929 21.6921C56.5545 22.1743 55.7611 22.5702 54.9282 22.8718C54.083 23.1735 53.19 23.3252 52.2905 23.3199C51.7268 23.3199 51.1659 23.2424 50.6243 23.0885C50.0984 22.9407 49.6076 22.6921 49.1807 22.3574C48.7419 22.0018 48.3927 21.5524 48.1602 21.0438C47.8828 20.4221 47.7493 19.7485 47.769 19.071V2.79602H52.192V6.94768H56.1754V10.2691H52.1952V18.4424C52.1488 18.8254 52.2794 19.2088 52.552 19.4879C52.7441 19.6585 52.9911 19.7585 53.2503 19.7699C53.7139 19.7677 54.1698 19.6541 54.5773 19.4388C54.9728 19.2377 55.3488 19.0018 55.7005 18.7341L57.2929 21.6921Z" fill="var(--fill-0, #002F56)"/>
<path id="Vector_3" d="M74.2814 7.08162V22.9494H70.2391L70.037 21.7233C69.5692 22.1777 69.0277 22.5538 68.4346 22.8366C67.6993 23.1735 66.8934 23.3377 66.0812 23.3158C65.3519 23.3247 64.6256 23.2202 63.9302 23.0058C63.8175 22.9747 63.7065 22.9369 63.5981 22.893C63.5113 22.8508 63.4102 22.8227 63.3223 22.7802C63.1937 22.738 63.0639 22.6816 62.9325 22.6252C62.0352 22.1735 61.2475 21.5391 60.6226 20.7649C60.2971 20.3633 60.0165 19.9286 59.7854 19.4686C59.6943 19.2944 59.6124 19.1155 59.5401 18.933C59.4283 18.6997 59.3318 18.4594 59.2513 18.2144C59.2367 18.1722 59.2222 18.1158 59.208 18.0736C59.136 17.8341 59.0637 17.5802 59.0045 17.3266C58.9613 17.1433 58.9195 16.9602 58.8904 16.763C58.8614 16.5658 58.8327 16.3824 58.8039 16.1852C58.7749 15.8472 58.7461 15.5088 58.7316 15.1566V14.8747C58.7461 14.5222 58.7749 14.1841 58.8039 13.8458C58.8329 13.6486 58.8617 13.4513 58.8904 13.268C58.9195 13.0849 58.9613 12.8874 59.0045 12.7044C59.0637 12.4649 59.136 12.2113 59.208 11.9716C59.3013 11.6697 59.412 11.3733 59.5401 11.0838C59.6411 10.8583 59.7712 10.6188 59.8864 10.4075C60.002 10.1961 60.1462 9.97051 60.2905 9.7594C60.3827 9.58801 60.494 9.42745 60.6226 9.28023C61.2475 8.50606 62.0352 7.8719 62.9325 7.41995C63.0523 7.3569 63.178 7.30495 63.3078 7.26495C63.3198 7.24468 63.3434 7.23357 63.367 7.23662C63.4999 7.16579 63.6402 7.10912 63.7856 7.06745C64.5249 6.82412 65.3009 6.70495 66.0809 6.71495C66.8922 6.69968 67.6967 6.86357 68.4343 7.19412C69.0274 7.4769 69.5689 7.85301 70.0367 8.30745L70.2388 7.08134H74.2811L74.2814 7.08162ZM69.8637 11.6333C69.5516 11.2041 69.1281 10.8636 68.6367 10.6469C68.1222 10.3897 67.5544 10.25 66.9765 10.2383C66.3629 10.2227 65.756 10.3638 65.2153 10.6469C64.7326 10.9213 64.3186 11.2966 64.0027 11.7461C63.6723 12.2322 63.4324 12.7711 63.2939 13.3386C63.155 13.888 63.073 14.4499 63.05 15.0155C63.0722 15.5811 63.1539 16.1433 63.2939 16.6924C63.4324 17.2597 63.6723 17.7988 64.0027 18.2847C64.3186 18.7341 64.7326 19.1097 65.2153 19.3838C65.756 19.6672 66.3632 19.808 66.9765 19.7924C67.5544 19.7808 68.1222 19.6411 68.6367 19.3838C69.1281 19.1672 69.5516 18.8266 69.8637 18.3974V11.6333Z" fill="var(--fill-0, #002F56)"/>
<path id="Vector_4" d="M92.4262 19.0936C91.8323 20.413 90.8414 21.5253 89.585 22.2828C88.3173 22.9886 86.8765 23.3447 85.4172 23.3128C84.3885 23.3161 83.368 23.1358 82.4056 22.7814C81.4515 22.4344 80.5824 21.8975 79.8533 21.2044C79.0892 20.4669 78.4868 19.585 78.0833 18.613C77.6189 17.4669 77.3929 16.2419 77.4191 15.0094C77.3926 13.7403 77.6126 12.4775 78.0676 11.2878C78.4507 10.2989 79.0349 9.39555 79.7853 8.63277C80.4797 7.93722 81.322 7.39777 82.2525 7.05278C83.1748 6.71166 84.1532 6.53778 85.1398 6.53861C86.0484 6.52694 86.9522 6.67 87.8107 6.96111C88.5464 7.21194 89.2362 7.57639 89.8534 8.04055C90.4089 8.46027 90.8909 8.96472 91.2811 9.53416C91.6365 10.0528 91.9271 10.6105 92.1476 11.1955L88.642 12.8864C88.3884 12.0205 87.8879 11.2433 87.1984 10.6444C86.6397 10.2194 85.9502 9.9911 85.2422 9.99638C84.7909 9.99444 84.3458 10.0969 83.9429 10.295C83.512 10.513 83.1353 10.8192 82.837 11.1928C82.479 11.6489 82.2135 12.1672 82.0545 12.7205C81.8476 13.4444 81.7503 14.1942 81.7656 14.9455C81.6842 16.2119 82.0508 17.4669 82.8037 18.5011C83.9972 19.9 86.0894 20.1736 87.6181 19.1311C88.2248 18.6358 88.7225 18.0258 89.0805 17.3372L92.4253 19.093L92.4262 19.0936Z" fill="var(--fill-0, #002F56)"/>
<path id="Vector_5" d="M110.95 22.9523H105.947L101.251 14.6815L99.6514 16.1428V22.9523H95.1948V0.797868H99.6514V11.4601L104.789 6.94203H110.132L104.483 11.8912L110.95 22.9523Z" fill="var(--fill-0, #002F56)"/>
<path id="Vector_6" d="M126.428 16.2766C126.722 16.9072 126.867 17.5936 126.854 18.2861C126.913 19.8183 126.136 21.2658 124.813 22.0911C124.125 22.5211 123.365 22.8302 122.568 23.0041C121.663 23.2077 120.738 23.308 119.81 23.303C118.156 23.3738 116.515 23.0005 115.063 22.2236C113.916 21.5691 112.96 20.6363 112.29 19.5163L115.592 17.5561C115.978 18.2655 116.532 18.8747 117.207 19.333C118.644 20.1663 120.403 20.2777 121.938 19.6316C122.4 19.4283 122.699 18.9819 122.703 18.4872C122.669 17.9666 122.36 17.5008 121.886 17.2586C120.941 16.7727 119.914 16.4574 118.854 16.3269C118.05 16.1886 117.259 15.983 116.49 15.7127C115.831 15.4888 115.215 15.1575 114.669 14.7333C114.182 14.3458 113.787 13.8586 113.515 13.3058C113.226 12.68 113.087 11.9988 113.106 11.313C113.084 9.93662 113.767 8.64051 114.926 7.85774C116.374 6.90524 118.1 6.43829 119.843 6.52885C121.37 6.45829 122.891 6.76107 124.267 7.4094C125.267 7.92024 126.13 8.65413 126.784 9.55162L123.654 11.6441C123.231 11.1013 122.699 10.6488 122.089 10.3152C121.401 9.94857 120.627 9.76524 119.843 9.78385C119.156 9.72218 118.467 9.86968 117.869 10.2066C117.519 10.458 117.316 10.8602 117.325 11.2844C117.298 11.7525 117.568 12.188 118.005 12.3822C118.815 12.7066 119.66 12.9408 120.524 13.08C121.43 13.2561 122.322 13.4916 123.195 13.7844C123.91 14.0152 124.582 14.3575 125.186 14.7977C125.713 15.188 126.139 15.6947 126.427 16.2761L126.428 16.2766Z" fill="var(--fill-0, #002F56)"/>
<path id="Vector_7" d="M4.55881 7.27777H0.0028457C0 7.22221 0 7.16666 0 7.1111C0 3.18889 3.26971 0 7.28499 0C11.3003 0 14.57 3.18889 14.57 7.1111V7.27777H10.0169V7.1111C10.0169 5.63888 8.79321 4.44444 7.28499 4.44444C5.77677 4.44444 4.55312 5.63888 4.55312 7.1111C4.55312 7.16666 4.55597 7.22221 4.55881 7.27777Z" fill="var(--fill-0, #2D62B6)"/>
<path id="Vector_8" d="M20.0281 16.7222H24.5841C24.5869 16.7778 24.5869 16.8333 24.5869 16.8889C24.5869 20.8111 21.3172 24 17.3019 24C13.2867 24 10.017 20.8111 10.017 16.8889V16.7222H14.5701V16.8889C14.5701 18.3611 15.7937 19.5556 17.3019 19.5556C18.8102 19.5556 20.0338 18.3611 20.0338 16.8889C20.0338 16.8333 20.031 16.7778 20.0281 16.7222Z" fill="var(--fill-0, #F9A814)"/>
<path id="Vector_9" d="M17.3026 9.77771H0.531995C1.61336 12.3805 4.23425 14.2221 7.28484 14.2221H24.0554C22.974 11.6194 20.356 9.77771 17.3026 9.77771Z" fill="var(--fill-0, #00748B)"/>
<path id="Vector_10" d="M5.1201 23.4805C6.82391 23.4805 8.20512 22.1323 8.20512 20.4691C8.20512 18.806 6.82391 17.4578 5.1201 17.4578C3.41629 17.4578 2.03508 18.806 2.03508 20.4691C2.03508 22.1323 3.41629 23.4805 5.1201 23.4805Z" fill="var(--fill-0, #F9A814)"/>
<path id="Vector_11" d="M22.4623 7.42815H17.1314V2.22455C20.0761 2.22455 22.4623 4.55399 22.4623 7.42815Z" fill="var(--fill-0, #2D62B6)"/>
</g>
</svg>
