<svg width="180" height="54" viewBox="0 0 180 54" fill="none" xmlns="http://www.w3.org/2000/svg">
<g clip-path="url(#clip0_1763_27201)">
<path d="M63.5093 25.4445C63.5428 26.9163 63.202 28.3716 62.5196 29.6673C61.8776 30.8494 60.9869 31.8712 59.912 32.6573C58.779 33.4744 57.5123 34.0774 56.1714 34.4374C54.7545 34.8326 53.2928 35.0318 51.8247 35.031C45.9675 35.031 41.8638 33.0041 39.5134 28.9502L44.4848 25.5953C45.1942 26.8183 46.2343 27.8053 47.4796 28.4369C48.806 29.0937 50.2649 29.4206 51.7383 29.3908C53.116 29.4607 54.4832 29.1185 55.6735 28.4055C56.5832 27.8669 57.1429 26.8725 57.1425 25.797C57.155 25.17 57.0399 24.5476 56.8045 23.9685C56.538 23.387 56.1407 22.8782 55.6453 22.4839C54.9495 21.9321 54.1864 21.4754 53.3756 21.1249C52.4102 20.6735 51.1871 20.1842 49.7069 19.6572C48.4297 19.2063 47.18 18.6776 45.9642 18.0742C44.9241 17.5641 43.9643 16.8975 43.1168 16.0969C42.3383 15.3566 41.7209 14.4564 41.3062 13.4549C40.8629 12.3158 40.6501 11.097 40.6795 9.87147C40.6634 8.59969 40.9012 7.33866 41.3777 6.16401C41.8517 5.03482 42.5793 4.03625 43.502 3.24929C44.5457 2.37388 45.753 1.72539 47.05 1.34348C50.0408 0.528831 53.179 0.461874 56.2005 1.14839C57.2983 1.41623 58.3546 1.83988 59.3386 2.40654C60.1833 2.90252 60.9558 3.51795 61.6329 4.23505C62.2596 4.90587 62.8253 5.63372 63.3231 6.40952L58.6405 9.82105C57.9739 8.77577 57.1017 7.88341 56.0797 7.20226C54.8421 6.45499 53.418 6.09457 51.983 6.16442C50.6771 6.07845 49.3754 6.38761 48.2403 7.05347C47.4449 7.54284 46.9595 8.42445 46.962 9.37466C46.9745 10.5539 47.5987 11.6368 48.6009 12.2179C50.151 13.1817 51.7997 13.9691 53.5173 14.5664C54.9992 15.0909 56.4439 15.7216 57.8394 16.4531C58.9801 17.0409 60.0295 17.7985 60.9529 18.7008C61.7763 19.52 62.4255 20.5045 62.86 21.5923C63.3179 22.8211 63.5388 24.1297 63.5093 25.4445Z" fill="#002F56"/>
<path d="M81.2928 32.2765C80.245 32.994 79.1192 33.583 77.9374 34.0319C76.7381 34.4808 75.4711 34.7064 74.1947 34.6986C73.3948 34.6986 72.599 34.5833 71.8306 34.3543C71.0844 34.1344 70.3879 33.7645 69.7822 33.2664C69.1596 32.7374 68.6641 32.0686 68.3342 31.3118C67.9406 30.3868 67.7512 29.3845 67.7791 28.3765V4.16016H74.055V10.3376H79.7071V15.2797H74.0594V27.4411C73.9936 28.0111 74.179 28.5815 74.5658 28.9968C74.8383 29.2506 75.1888 29.3994 75.5567 29.4164C76.2144 29.4131 76.8613 29.244 77.4395 28.9237C78.0008 28.6245 78.5341 28.2735 79.0332 27.8751L81.2928 32.2765Z" fill="#002F56"/>
<path d="M105.399 10.5373V34.1476H99.663L99.3764 32.3233C98.7125 32.9995 97.9441 33.5591 97.1027 33.9798C96.0593 34.4812 94.9158 34.7255 93.7634 34.6928C92.7285 34.706 91.6981 34.5506 90.7112 34.2316C90.5513 34.1853 90.3939 34.129 90.24 34.0637C90.1169 34.0009 89.9735 33.9592 89.8487 33.8959C89.6662 33.8331 89.4821 33.7492 89.2956 33.6653C88.0224 32.9932 86.9048 32.0492 86.0181 30.8973C85.5562 30.2997 85.158 29.6528 84.8302 28.9684C84.701 28.7092 84.5847 28.443 84.4821 28.1715C84.3234 27.8243 84.1865 27.4668 84.0723 27.1022C84.0517 27.0394 84.0311 26.9555 84.0109 26.8927C83.9087 26.5364 83.8062 26.1586 83.7222 25.7813C83.6608 25.5085 83.6015 25.2361 83.5603 24.9426C83.5191 24.6492 83.4783 24.3764 83.4375 24.0829C83.3963 23.5799 83.3556 23.0765 83.335 22.5524V22.1329C83.3556 21.6084 83.3963 21.1054 83.4375 20.602C83.4787 20.3085 83.5195 20.0151 83.5603 19.7423C83.6015 19.4699 83.6608 19.176 83.7222 18.9037C83.8062 18.5474 83.9087 18.17 84.0109 17.8133C84.1433 17.364 84.3004 16.923 84.4821 16.4924C84.6254 16.1567 84.81 15.8005 84.9735 15.4859C85.1374 15.1714 85.3422 14.8358 85.5469 14.5217C85.6777 14.2666 85.8356 14.0277 86.0181 13.8087C86.9048 12.6568 88.0224 11.7132 89.2956 11.0407C89.4656 10.9469 89.644 10.8696 89.8282 10.8101C89.8451 10.7799 89.8786 10.7634 89.9121 10.7679C90.1007 10.6625 90.2998 10.5782 90.5061 10.5162C91.5551 10.1541 92.6562 9.97681 93.763 9.99169C94.9142 9.96896 96.0557 10.2128 97.1023 10.7047C97.9437 11.1254 98.7121 11.6851 99.3759 12.3612L99.6626 10.5369H105.398L105.399 10.5373ZM99.1304 17.3099C98.6875 16.6713 98.0867 16.1646 97.3893 15.8422C96.6593 15.4595 95.8538 15.2516 95.0337 15.2342C94.1631 15.2111 93.3019 15.421 92.5347 15.8422C91.8499 16.2506 91.2624 16.809 90.8142 17.4777C90.3454 18.201 90.005 19.0028 89.8084 19.8473C89.6113 20.6648 89.495 21.5009 89.4623 22.3425C89.4938 23.184 89.6097 24.0205 89.8084 24.8377C90.005 25.6817 90.3454 26.4839 90.8142 27.2068C91.2624 27.8755 91.8499 28.4344 92.5347 28.8423C93.3019 29.2639 94.1635 29.4734 95.0337 29.4503C95.8538 29.4329 96.6593 29.225 97.3893 28.8423C98.0867 28.5199 98.6875 28.0132 99.1304 27.3746V17.3099Z" fill="#002F56"/>
<path d="M131.144 28.4106C130.302 30.3739 128.896 32.0288 127.113 33.156C125.314 34.2062 123.27 34.7361 121.199 34.6885C119.739 34.6935 118.291 34.4253 116.926 33.8979C115.572 33.3816 114.339 32.5827 113.304 31.5515C112.22 30.4541 111.365 29.1418 110.793 27.6956C110.134 25.9903 109.813 24.1675 109.85 22.3336C109.813 20.4452 110.125 18.5662 110.771 16.796C111.314 15.3246 112.143 13.9805 113.208 12.8455C114.193 11.8106 115.388 11.0079 116.709 10.4945C118.017 9.98699 119.405 9.72826 120.805 9.7295C122.095 9.71214 123.377 9.925 124.595 10.3582C125.639 10.7314 126.618 11.2737 127.494 11.9643C128.282 12.5888 128.966 13.3394 129.519 14.1867C130.024 14.9584 130.436 15.7883 130.749 16.6588L125.775 19.1746C125.415 17.8863 124.705 16.7299 123.726 15.8388C122.934 15.2064 121.955 14.8666 120.951 14.8745C120.31 14.8716 119.679 15.0241 119.107 15.3188C118.496 15.6433 117.961 16.0987 117.538 16.6546C117.03 17.3333 116.653 18.1046 116.428 18.9279C116.134 20.005 115.996 21.1205 116.018 22.2386C115.902 24.1229 116.422 25.9903 117.491 27.529C119.184 29.6105 122.153 30.0176 124.322 28.4664C125.183 27.7295 125.889 26.8219 126.397 25.7972L131.143 28.4098L131.144 28.4106Z" fill="#002F56"/>
<path d="M157.427 34.1521H150.329L143.666 21.8455L141.396 24.02V34.1521H135.072V1.1875H141.396V17.0523L148.686 10.3297H156.267L148.252 17.6938L157.427 34.1521Z" fill="#002F56"/>
<path d="M179.391 24.2189C179.809 25.1571 180.015 26.1784 179.996 27.2088C180.079 29.4887 178.977 31.6425 177.099 32.8704C176.123 33.5103 175.045 33.9703 173.914 34.229C172.631 34.532 171.317 34.6812 170.001 34.6738C167.655 34.7791 165.325 34.2236 163.266 33.0676C161.638 32.0938 160.282 30.7059 159.331 29.0394L164.016 26.1226C164.563 27.1782 165.349 28.0846 166.307 28.7666C168.347 30.0066 170.842 30.1723 173.021 29.2109C173.676 28.9084 174.1 28.2442 174.106 27.5081C174.058 26.7335 173.618 26.0404 172.947 25.68C171.605 24.9571 170.149 24.4879 168.645 24.2937C167.503 24.0879 166.381 23.782 165.29 23.3798C164.354 23.0467 163.481 22.5536 162.707 21.9225C162.015 21.3459 161.455 20.6209 161.068 19.7984C160.659 18.8672 160.462 17.8538 160.488 16.8333C160.457 14.7853 161.426 12.8568 163.071 11.692C165.125 10.2748 167.574 9.57997 170.048 9.71471C172.214 9.60973 174.372 10.0602 176.324 11.0249C177.744 11.785 178.968 12.877 179.897 14.2124L175.456 17.326C174.856 16.5183 174.1 15.845 173.235 15.3487C172.259 14.8031 171.16 14.5303 170.048 14.558C169.073 14.4662 168.095 14.6857 167.247 15.187C166.75 15.5611 166.462 16.1596 166.475 16.7907C166.436 17.4872 166.82 18.1352 167.439 18.4242C168.589 18.9069 169.788 19.2553 171.014 19.4624C172.299 19.7245 173.565 20.0749 174.804 20.5106C175.819 20.8541 176.772 21.3633 177.629 22.0184C178.377 22.5991 178.981 23.353 179.39 24.218L179.391 24.2189Z" fill="#002F56"/>
<path d="M6.46856 10.8289H0.0040378C0 10.7463 0 10.6636 0 10.5809C0 4.74489 4.63944 0 10.3368 0C16.0341 0 20.6736 4.74489 20.6736 10.5809V10.8289H14.2131V10.5809C14.2131 8.39036 12.4768 6.61309 10.3368 6.61309C8.19674 6.61309 6.46048 8.39036 6.46048 10.5809C6.46048 10.6636 6.46452 10.7463 6.46856 10.8289Z" fill="#2D62B6"/>
<path d="M28.4181 24.8818H34.8826C34.8867 24.9645 34.8867 25.0472 34.8867 25.1298C34.8867 30.9659 30.2472 35.7108 24.5499 35.7108C18.8526 35.7108 14.2131 30.9659 14.2131 25.1298V24.8818H20.6736V25.1298C20.6736 27.3204 22.4099 29.0977 24.5499 29.0977C26.6899 29.0977 28.4262 27.3204 28.4262 25.1298C28.4262 25.0472 28.4222 24.9645 28.4181 24.8818Z" fill="#F9A814"/>
<path d="M24.5511 14.5488H0.755127C2.28949 18.4216 6.00831 21.1619 10.3368 21.1619H34.1328C32.5985 17.2891 28.8837 14.5488 24.5511 14.5488Z" fill="#00748B"/>
<path d="M7.26532 34.9381C9.68288 34.9381 11.6427 32.932 11.6427 30.4573C11.6427 27.9827 9.68288 25.9766 7.26532 25.9766C4.84776 25.9766 2.88794 27.9827 2.88794 30.4573C2.88794 32.932 4.84776 34.9381 7.26532 34.9381Z" fill="#F9A814"/>
<path d="M31.8716 11.0523H24.3076V3.30957C28.4859 3.30957 31.8716 6.77565 31.8716 11.0523Z" fill="#2D62B6"/>
<path d="M89.3853 46.4753H87.2497V53.8299H84.7831V46.4753H83.4255V45.2552L84.7831 44.5774V43.8996C84.7831 43.1089 84.9127 42.4959 85.1719 42.0607C85.4311 41.6259 85.801 41.318 86.2811 41.1373C86.7612 40.9567 87.3265 40.8662 87.9782 40.8662C88.4526 40.8662 88.8887 40.9059 89.286 40.9848C89.6833 41.0642 90.0031 41.1543 90.2462 41.256L89.6171 43.1031C89.4294 43.0469 89.2222 42.9927 88.9965 42.9423C88.77 42.8915 88.5188 42.8658 88.243 42.8658C87.9006 42.8658 87.6495 42.9733 87.49 43.1878C87.3297 43.4027 87.2497 43.6739 87.2497 44.0012V44.5774H89.3853V46.4753Z" fill="#2D62B5"/>
<path d="M95.8418 44.4082C95.963 44.4082 96.1067 44.414 96.2723 44.4251C96.4378 44.4363 96.5703 44.4533 96.6696 44.476L96.4875 46.8484C96.3991 46.8261 96.2832 46.8059 96.1398 46.7889C95.9965 46.772 95.8693 46.7633 95.7591 46.7633C95.3395 46.7633 94.9366 46.8398 94.5505 46.9923C94.1641 47.1448 93.8524 47.3903 93.6154 47.7296C93.378 48.0685 93.2597 48.5319 93.2597 49.1192V53.8302H90.793V44.5777H92.6637L93.0279 46.1367H93.1438C93.4087 45.6622 93.7729 45.2555 94.2364 44.9166C94.6999 44.5777 95.235 44.4082 95.8422 44.4082H95.8418Z" fill="#2D62B5"/>
<path d="M106.189 49.187C106.189 50.7233 105.794 51.9095 105.005 52.7457C104.215 53.5818 103.143 53.9997 101.785 53.9997C100.946 53.9997 100.198 53.8133 99.5412 53.4404C98.8847 53.0676 98.3686 52.5225 97.9935 51.8049C97.6184 51.0878 97.4307 50.2149 97.4307 49.187C97.4307 47.6507 97.8223 46.4698 98.6061 45.6453C99.3894 44.8207 100.465 44.4082 101.834 44.4082C102.684 44.4082 103.434 44.5946 104.086 44.9674C104.737 45.3402 105.25 45.8825 105.625 46.5942C106 47.306 106.188 48.1702 106.188 49.187H106.189ZM99.9474 49.187C99.9474 50.1021 100.094 50.7944 100.386 51.2627C100.678 51.7314 101.156 51.9661 101.818 51.9661C102.469 51.9661 102.941 51.7318 103.233 51.2627C103.525 50.794 103.671 50.1017 103.671 49.187C103.671 48.2723 103.525 47.5854 103.233 47.1282C102.94 46.6707 102.463 46.4417 101.801 46.4417C101.15 46.4417 100.678 46.6707 100.386 47.1282C100.093 47.5858 99.9474 48.2719 99.9474 49.187Z" fill="#2D62B5"/>
<path d="M118.836 44.4081C119.863 44.4081 120.638 44.6763 121.162 45.2128C121.686 45.7497 121.949 46.611 121.949 47.7968V53.8296H119.482V48.4239C119.482 47.0909 119.029 46.4242 118.124 46.4242C117.473 46.4242 117.009 46.6615 116.734 47.136C116.458 47.6104 116.32 48.2941 116.32 49.1864V53.8296H113.853V48.4239C113.853 47.0909 113.401 46.4242 112.496 46.4242C111.811 46.4242 111.34 46.6867 111.08 47.212C110.821 47.7373 110.692 48.4916 110.692 49.4745V53.8296H108.225V44.5771H110.112L110.443 45.7633H110.576C110.851 45.2888 111.23 44.9445 111.71 44.7296C112.19 44.5151 112.689 44.4076 113.208 44.4076C113.87 44.4076 114.43 44.518 114.888 44.7379C115.346 44.9582 115.702 45.3 115.956 45.7629H116.172C116.447 45.2884 116.831 44.9441 117.322 44.7292C117.813 44.5147 118.318 44.4072 118.837 44.4072L118.836 44.4081Z" fill="#2D62B5"/>
<path d="M135.788 53.8299H128.984V41.7305H135.788V43.8318H131.484V46.4923H135.49V48.5936H131.484V51.7117H135.788V53.8299Z" fill="#2D62B5"/>
<path d="M138.255 41.7305H141.931C143.498 41.7305 144.687 41.9566 145.498 42.4083C146.309 42.8601 146.715 43.6569 146.715 44.7977C146.715 45.4867 146.557 46.0687 146.243 46.5431C145.929 47.0176 145.479 47.3057 144.894 47.4074V47.4921C145.28 47.5826 145.636 47.7265 145.962 47.924C146.287 48.122 146.544 48.413 146.732 48.797C146.919 49.1809 147.013 49.6893 147.013 50.3221C147.013 51.4178 146.625 52.2767 145.846 52.8979C145.068 53.5191 144.011 53.8299 142.676 53.8299H138.256V41.7305H138.255ZM140.755 46.5262H142.212C142.94 46.5262 143.446 46.4105 143.727 46.1786C144.008 45.9471 144.149 45.6 144.149 45.1366C144.149 44.6733 143.983 44.3402 143.652 44.1368C143.321 43.9335 142.797 43.8318 142.08 43.8318H140.755V46.5262ZM140.755 48.5597V51.7117H142.394C143.144 51.7117 143.669 51.5621 143.967 51.2628C144.265 50.9636 144.414 50.5651 144.414 50.0679C144.414 49.6162 144.262 49.252 143.959 48.9747C143.655 48.6982 143.106 48.5597 142.311 48.5597H140.755Z" fill="#2D62B5"/>
<path d="M156.35 50.4742C156.35 51.5476 155.972 52.4035 155.216 53.0413C154.459 53.6799 153.386 53.9989 151.995 53.9989C150.748 53.9989 149.633 53.7563 148.651 53.2703V50.8809C149.214 51.1297 149.796 51.3583 150.398 51.567C150.999 51.7761 151.598 51.8807 152.194 51.8807C152.812 51.8807 153.251 51.7596 153.51 51.5161C153.769 51.2735 153.899 50.9652 153.899 50.5928C153.899 50.2878 153.797 50.0282 153.593 49.8133C153.389 49.5988 153.115 49.3979 152.774 49.2115C152.431 49.0251 152.039 48.8246 151.598 48.6097C151.322 48.4741 151.024 48.3129 150.704 48.1269C150.384 47.9405 150.078 47.7091 149.785 47.4321C149.492 47.1556 149.253 46.8196 149.065 46.4241C148.877 46.0285 148.784 45.5544 148.784 45.0006C148.784 43.916 149.142 43.0716 149.86 42.467C150.577 41.8627 151.554 41.5605 152.79 41.5605C153.408 41.5605 153.993 41.6341 154.545 41.7808C155.097 41.9276 155.682 42.1367 156.3 42.4079L155.489 44.4075C154.948 44.1818 154.462 44.0066 154.032 43.8822C153.601 43.7577 153.16 43.6957 152.707 43.6957C152.233 43.6957 151.868 43.8086 151.615 44.0347C151.361 44.2608 151.234 44.5546 151.234 44.9159C151.234 45.3453 151.421 45.6842 151.797 45.9326C152.172 46.1814 152.73 46.4861 153.469 46.8477C154.076 47.1416 154.592 47.4466 155.017 47.7628C155.441 48.0794 155.77 48.4522 156.001 48.8812C156.233 49.3107 156.349 49.8418 156.349 50.4742H156.35Z" fill="#2D62B5"/>
<path d="M163.518 43.6962C162.558 43.6962 161.824 44.0636 161.316 44.7977C160.808 45.5321 160.555 46.5373 160.555 47.814C160.555 49.1019 160.789 50.0993 161.258 50.8052C161.727 51.5112 162.481 51.8642 163.518 51.8642C163.992 51.8642 164.472 51.8075 164.958 51.6947C165.443 51.5819 165.968 51.4236 166.531 51.2202V53.3724C166.012 53.5873 165.499 53.7452 164.991 53.8468C164.483 53.9485 163.915 53.9994 163.286 53.9994C162.061 53.9994 161.057 53.7423 160.273 53.2281C159.489 52.7143 158.91 51.991 158.535 51.059C158.159 50.127 157.972 49.0399 157.972 47.7967C157.972 46.5766 158.187 45.4978 158.618 44.56C159.048 43.6222 159.674 42.8881 160.496 42.357C161.318 41.8259 162.326 41.5605 163.517 41.5605C164.103 41.5605 164.69 41.637 165.281 41.7895C165.871 41.942 166.437 42.1483 166.978 42.4083L166.167 44.4926C165.725 44.2781 165.281 44.0917 164.834 43.9334C164.387 43.7751 163.949 43.6962 163.518 43.6962Z" fill="#2D62B5"/>
<path d="M179.444 47.7631C179.444 49.0171 179.242 50.1104 178.84 51.0424C178.436 51.9744 177.818 52.7006 176.985 53.2202C176.152 53.7401 175.095 53.9997 173.815 53.9997C172.534 53.9997 171.478 53.7401 170.644 53.2202C169.811 52.7006 169.193 51.972 168.79 51.0341C168.387 50.0963 168.186 49.0006 168.186 47.7466C168.186 46.4926 168.387 45.4027 168.79 44.476C169.193 43.5498 169.811 42.8298 170.644 42.3152C171.477 41.801 172.54 41.5439 173.831 41.5439C175.111 41.5439 176.166 41.801 176.993 42.3152C177.821 42.8294 178.436 43.5523 178.84 44.4843C179.242 45.4163 179.444 46.5091 179.444 47.7631ZM170.818 47.7631C170.818 49.0287 171.055 50.0256 171.53 50.7543C172.005 51.483 172.766 51.8476 173.815 51.8476C174.885 51.8476 175.652 51.483 176.116 50.7543C176.58 50.0256 176.811 49.0287 176.811 47.7631C176.811 46.4976 176.58 45.5011 176.116 44.7724C175.652 44.0437 174.891 43.6791 173.831 43.6791C172.772 43.6791 172.005 44.0433 171.53 44.7724C171.055 45.5011 170.818 46.4984 170.818 47.7631Z" fill="#2D62B5"/>
</g>
<defs>
<clipPath id="clip0_1763_27201">
<rect width="180" height="54" fill="white"/>
</clipPath>
</defs>
</svg>
