<svg preserveAspectRatio="none" width="100%" height="100%" overflow="visible" style="display: block;" viewBox="0 0 16 13" fill="none" xmlns="http://www.w3.org/2000/svg">
<path id="box circle check" d="M9.51111 1.3C9.68611 1.3 9.84722 1.40021 9.91667 1.55729L10.7889 3.46667H6.88889V1.3H9.51111ZM1.33333 4.76667H9.96111C10.5806 4.48771 11.2722 4.33333 12 4.33333C12.15 4.33333 12.2972 4.33875 12.4444 4.35229V4.26833C12.4444 4.02458 12.3917 3.78625 12.2917 3.56417L11.1361 1.02917C10.85 0.403542 10.2139 0 9.51111 0H2.93333C2.23056 0 1.59444 0.403542 1.30833 1.02917L0.152778 3.56417C0.0527778 3.78625 0 4.02458 0 4.26833V10.4C0 11.356 0.797222 12.1333 1.77778 12.1333H8.22778C7.9 11.746 7.63333 11.3073 7.44444 10.8333H1.77778C1.53333 10.8333 1.33333 10.6383 1.33333 10.4V4.76667ZM1.65556 3.46667L2.52778 1.55729C2.6 1.40021 2.75833 1.3 2.93333 1.3H5.55556V3.46667H1.65556ZM16 9.1C16 8.06566 15.5786 7.07368 14.8284 6.34228C14.0783 5.61089 13.0609 5.2 12 5.2C10.9391 5.2 9.92172 5.61089 9.17157 6.34228C8.42143 7.07368 8 8.06566 8 9.1C8 10.1343 8.42143 11.1263 9.17157 11.8577C9.92172 12.5891 10.9391 13 12 13C13.0609 13 14.0783 12.5891 14.8284 11.8577C15.5786 11.1263 16 10.1343 16 9.1ZM13.8694 7.92729C14.0417 8.09521 14.0417 8.37146 13.8694 8.53937L11.8694 10.4894C11.6972 10.6573 11.4139 10.6573 11.2417 10.4894L10.1306 9.40604C9.95833 9.23812 9.95833 8.96188 10.1306 8.79396C10.3028 8.62604 10.5861 8.62604 10.7583 8.79396L11.5556 9.57125L13.2417 7.92729C13.4139 7.75938 13.6972 7.75938 13.8694 7.92729Z" fill="var(--fill-0, #55585D)"/>
</svg>
