<svg preserveAspectRatio="none" width="100%" height="100%" overflow="visible" style="display: block;" viewBox="0 0 10 13.9873" fill="none" xmlns="http://www.w3.org/2000/svg">
<g id="lock">
<path id="Union" d="M5.26196 0.0136719C5.89943 0.0777579 6.7008 0.377369 7.37329 1.06836C8.15245 1.86905 8.71019 3.14317 8.71021 5.04492H7.54028C7.54027 3.37923 7.05624 2.42199 6.53345 1.88477C6.06673 1.40542 5.52886 1.21725 5.15161 1.17773L5.00024 1.16992C4.62694 1.16992 4.0006 1.33678 3.46704 1.88477C2.94421 2.42197 2.46022 3.37914 2.46021 5.04492H1.29028C1.29029 3.1431 1.84799 1.86904 2.6272 1.06836C3.39562 0.278816 4.33199 0 5.00024 0L5.26196 0.0136719Z" fill="var(--fill-0, #626365)"/>
<rect id="Rectangle 5" y="5.04475" width="10" height="8.94255" rx="1.17087" fill="var(--fill-0, #626365)"/>
</g>
</svg>
