<svg preserveAspectRatio="none" width="100%" height="100%" overflow="visible" style="display: block;" viewBox="0 0 16 16" fill="none" xmlns="http://www.w3.org/2000/svg">
<path id="swatchbook" d="M0 12.5C0 14.4344 1.56562 16 3.5 16H14C15.1031 16 16 15.1031 16 14V11C16 9.89688 15.1031 9 14 9H12.0594L13.6438 7.41563C14.425 6.63438 14.425 5.36875 13.6438 4.5875L11.4156 2.35313C10.6344 1.57188 9.36875 1.57188 8.5875 2.35313L7 3.94062V2C7 0.896875 6.10312 0 5 0H2C0.896875 0 0 0.896875 0 2V12.5ZM14 14.5H6.55937L10.5594 10.5H14C14.275 10.5 14.5 10.725 14.5 11V14C14.5 14.275 14.275 14.5 14 14.5ZM12.5844 6.35313L7 11.9406V6.0625L9.64688 3.41563C9.84063 3.22188 10.1594 3.22188 10.3531 3.41563L12.5844 5.64687C12.7781 5.84062 12.7781 6.15938 12.5844 6.35313ZM3.5 14.5C2.39688 14.5 1.5 13.6031 1.5 12.5V9.5H5.5V12.5C5.5 13.6031 4.60312 14.5 3.5 14.5ZM1.5 8V5.5H5.5V8H1.5ZM1.5 4V2C1.5 1.725 1.725 1.5 2 1.5H5C5.275 1.5 5.5 1.725 5.5 2V4H1.5ZM3.5 13.25C3.59849 13.25 3.69602 13.2306 3.78701 13.1929C3.87801 13.1552 3.96069 13.1 4.03033 13.0303C4.09997 12.9607 4.15522 12.878 4.19291 12.787C4.2306 12.696 4.25 12.5985 4.25 12.5C4.25 12.4015 4.2306 12.304 4.19291 12.213C4.15522 12.122 4.09997 12.0393 4.03033 11.9697C3.96069 11.9 3.87801 11.8448 3.78701 11.8071C3.69602 11.7694 3.59849 11.75 3.5 11.75C3.40151 11.75 3.30398 11.7694 3.21299 11.8071C3.12199 11.8448 3.03931 11.9 2.96967 11.9697C2.90003 12.0393 2.84478 12.122 2.80709 12.213C2.7694 12.304 2.75 12.4015 2.75 12.5C2.75 12.5985 2.7694 12.696 2.80709 12.787C2.84478 12.878 2.90003 12.9607 2.96967 13.0303C3.03931 13.1 3.12199 13.1552 3.21299 13.1929C3.30398 13.2306 3.40151 13.25 3.5 13.25Z" fill="var(--fill-0, #255096)"/>
</svg>
