<svg preserveAspectRatio="none" width="100%" height="100%" overflow="visible" style="display: block;" viewBox="0 0 15.0825 16" fill="none" xmlns="http://www.w3.org/2000/svg">
<path id="shield check" d="M1.79106 3.99057L7.54126 1.55224L13.2915 3.99057C13.4768 4.06913 13.5774 4.23566 13.5742 4.39277C13.5617 7.26473 12.3676 12.2262 7.72036 14.4509C7.60724 14.5043 7.47527 14.5043 7.36529 14.4509C2.71486 12.2231 1.52397 7.26473 1.50826 4.38963C1.50826 4.23252 1.60567 4.06913 1.79106 3.98743V3.99057ZM13.879 2.60173L7.96231 0.0911233C7.83034 0.0314218 7.68894 0 7.54126 0C7.39357 0 7.25217 0.0314218 7.1202 0.0911233L1.20347 2.60173C0.51219 2.89395 -0.00312789 3.5758 1.42922e-05 4.39906C0.0157252 7.5161 1.29774 13.2192 6.71172 15.8115C7.23646 16.0628 7.84605 16.0628 8.37079 15.8115C13.7879 13.2192 15.0668 7.5161 15.0825 4.39906C15.0856 3.5758 14.5703 2.89395 13.879 2.60173ZM11.0919 6.56716C11.3873 6.2718 11.3873 5.79419 11.0919 5.50196C10.7966 5.20974 10.3189 5.2066 10.0267 5.50196L6.5389 8.98979L5.06207 7.51296C4.76671 7.2176 4.28909 7.2176 3.99687 7.51296C3.70465 7.80833 3.70151 8.28594 3.99687 8.57816L6.00787 10.5892C6.30323 10.8845 6.78085 10.8845 7.07307 10.5892L11.0919 6.56716Z" fill="var(--fill-0, #255096)"/>
</svg>
